<svg id="Layer_1" data-name="Layer 1" xmlns="http://www.w3.org/2000/svg" xmlns:xlink="http://www.w3.org/1999/xlink" viewBox="0 0 504.82 570.54"><defs><linearGradient id="linear-gradient" x1="360.46" y1="56.77" x2="361.18" y2="56.77" gradientUnits="userSpaceOnUse"><stop offset="0" stop-color="#ecc4d7"/><stop offset="0.42" stop-color="#efd4d1"/><stop offset="1" stop-color="#f2eac9"/></linearGradient><linearGradient id="linear-gradient-2" x1="350.98" y1="57.04" x2="389.56" y2="57.04" xlink:href="#linear-gradient"/><linearGradient id="linear-gradient-3" x1="261.28" y1="-14.9" x2="252.84" y2="775.72" gradientUnits="userSpaceOnUse"><stop offset="0" stop-opacity="0"/><stop offset="0.97"/></linearGradient><linearGradient id="linear-gradient-4" x1="261.14" y1="-14.75" x2="252.7" y2="775.52" xlink:href="#linear-gradient-3"/><linearGradient id="linear-gradient-5" x1="334.85" y1="78.57" x2="290.78" y2="85.75" xlink:href="#linear-gradient-3"/><linearGradient id="linear-gradient-6" x1="354.78" y1="66.7" x2="309.54" y2="83.6" xlink:href="#linear-gradient-3"/><linearGradient id="linear-gradient-7" x1="297.22" y1="90.02" x2="381.01" y2="61.77" xlink:href="#linear-gradient-3"/><linearGradient id="linear-gradient-8" x1="325.02" y1="42.66" x2="331.87" y2="48.1" xlink:href="#linear-gradient"/><linearGradient id="linear-gradient-9" x1="331.39" y1="46.93" x2="314" y2="62.35" xlink:href="#linear-gradient-3"/><linearGradient id="linear-gradient-10" x1="314.32" y1="73.82" x2="369.94" y2="73.82" xlink:href="#linear-gradient"/><linearGradient id="linear-gradient-11" x1="394.85" y1="33.04" x2="427.25" y2="34.98" xlink:href="#linear-gradient-3"/><linearGradient id="linear-gradient-12" x1="328.9" y1="20.22" x2="333.97" y2="39.93" xlink:href="#linear-gradient"/><linearGradient id="linear-gradient-13" x1="320.24" y1="69.77" x2="298.84" y2="70.71" xlink:href="#linear-gradient-3"/><linearGradient id="linear-gradient-14" x1="376.37" y1="42.19" x2="396.79" y2="30.36" xlink:href="#linear-gradient"/><linearGradient id="linear-gradient-15" x1="292.46" y1="405.57" x2="295.84" y2="-207.67" xlink:href="#linear-gradient-3"/></defs><title>48. Podcast</title><path d="M289.34,33c30.83-10.81,64.89-7.17,96.62.58,25.84,6.32,51.72,15.67,71.66,33.28,25.23,22.28,38.46,56.23,39.66,89.87s-8.73,67-23.89,97c-5.56,11-12,22.38-11.71,34.74.59,25.07,26.8,40.16,43.61,58.78,18.51,20.5,26.64,48.23,31.82,75.36,2.42,12.66,4.32,25.68,2.14,38.38-2.32,13.47-9.16,25.83-17.68,36.52-23.78,29.8-60.34,47.24-97.66,55.07s-75.84,7-114,6.09L187.5,555.81c-40.5-.95-84.29-3-115.71-28.61C45.12,505.5,32.41,469.13,36,434.93s22.16-65.86,47.75-88.82c7.92-7.11,16.68-13.67,22.1-22.83,8.68-14.67,7.18-33,5.63-49.93-3.62-39.54-3.83-85,25.32-111.93,23.89-22.08,51-30,70.56-56.85C229,74.88,253.54,45.52,289.34,33Z" transform="translate(-35.39 -2.4)" fill="#017be3" opacity="0.25"/><path d="M357.22,55.28c.2-.57,2.3-5,1.92,2.22,0,.25-.93.83-1,1a1.38,1.38,0,0,1-.35.37c-.32.26-.84,1.1-1.18,1.2-.51.16-.51-.69-.5-1.14C356.13,57.5,356.75,56.62,357.22,55.28Z" transform="translate(-35.39 -2.4)" fill="url(#linear-gradient)"/><path d="M384.06,49.44c-1.5,1.77-11.64,42.67-26.35,33.21a53.41,53.41,0,0,1-6.63-4.46c.71-.15-.42-2.33,0-2.91,1.47-2,4.8-2.36,6.27-4.36.17-.24.16-.52.43-.64,2.81,1.09,3.78,2,5.64,1.07s5-7.63,6.09-9.43c4.95-8.36,4.89-7.05,8.21-14.24.4-.87.19-4.59.08-5.54s-1.55-3.21-1.42-4.24c.1-.79,1.5-.82,1.83-.1a3.39,3.39,0,0,0,2.45,1.61.77.77,0,0,0,.47-.17C383.76,37,383,34,384.56,31.09a.8.8,0,0,1,.09-.14c.61-.83,2.74-2.09,4,1.25C390.85,38,388.94,43.67,384.06,49.44Z" transform="translate(-35.39 -2.4)" fill="url(#linear-gradient-2)"/><path d="M347.17,25C345.93,33.79,342,42.82,345,51.16l-2.87-.67-.06,2.29c-4.08-1-8.32.71-12.53.63-6.32-.12-12.15-4.57-14.65-10.38s-1.87-12.7.91-18.38C319.57,17,327.52,9.42,336.29,9.4c3.2,0,5.43-.1,7.81,2.35C347.57,15.32,347.83,20.35,347.17,25Z" transform="translate(-35.39 -2.4)" fill="#161528"/><rect x="124.84" y="116.52" width="265.26" height="454.02" rx="53.63" fill="#017be3"/><rect x="139.15" y="127.55" width="236.64" height="428.18" rx="43.68" fill="url(#linear-gradient-3)"/><rect x="149.89" y="127.55" width="214.88" height="428.18" rx="41.62" fill="url(#linear-gradient-4)"/><path d="M392.32,177c-3.36.06-12.38,3.66-15.67,3a6.29,6.29,0,0,1-2.51-.93c-.87-.64-1.62-6.87-2.09-7.84q-5.81-11.83-11.59-23.68a209.09,209.09,0,0,1,.22,29.72c-.22,3.46-.29,7.51,2.42,9.66.53.42,4.88,1.16,5.5,1.43,2.67,1.12,3.78,4.11,3.31,4.78-1.21,1.72-13.07,3.08-13.35,2.89-4.6-3.15-7.29-8.39-9.31-13.58a90.37,90.37,0,0,1-5.43-21.58c-.26-2.09-.52-4.35-2-5.88a9.62,9.62,0,0,0-3.48-2,49.28,49.28,0,0,0-9.09-3c-5.44-1-11-.13-16.55-.69-23.46-2.4-22.09-27.62-20.05-30.36h52.21a59.69,59.69,0,0,0,12.3,5.1c5.26,1.4,11.25,1.84,15,5.77,2.64,2.75,3.61,6.67,4.34,10.41a165,165,0,0,1,3,25.45c.1,2.43.32,5.22,2.29,6.65C383.43,173.46,390.82,170.85,392.32,177Z" transform="translate(-35.39 -2.4)" fill="#25233a" opacity="0.33"/><path d="M347.79,106.5l24.07,12.42,26.43,44.67-6.57,5.27-23.27-29.21-46.66-19.88S332.24,107,347.79,106.5Z" transform="translate(-35.39 -2.4)" fill="#161528"/><path d="M325.12,242.59V314a31.93,31.93,0,1,1-63.86,0V242.59a31.93,31.93,0,1,1,63.86,0Z" transform="translate(-35.39 -2.4)" fill="#fff"/><path d="M335.63,313.7a42.36,42.36,0,1,1-84.71,0" transform="translate(-35.39 -2.4)" fill="none" stroke="#fff" stroke-linecap="round" stroke-miterlimit="10" stroke-width="7"/><line x1="257.89" y1="353.66" x2="257.89" y2="406.07" fill="none" stroke="#fff" stroke-linecap="round" stroke-miterlimit="10" stroke-width="7"/><circle cx="252.89" cy="476.22" r="24.25" fill="none" stroke="#fff" stroke-miterlimit="10"/><circle cx="252.89" cy="476.22" r="15.33" fill="#cc1d1d"/><path d="M340.79,50.21c4.82,2.59,8.16,7.21,11.33,11.68l5.28,7.43a1.49,1.49,0,0,1,.38,1,1.43,1.43,0,0,1-.4.73l-5.79,7.06c-.33.41-.75.86-1.28.84a1.68,1.68,0,0,1-.92-.46,21.45,21.45,0,0,1-5.58-6.9l4,31.84a8.34,8.34,0,0,1,0,3.11c-.64,2.43-3.26,3.74-5.69,4.35a46.68,46.68,0,0,1-9.14,1l-17.16.73a5.09,5.09,0,0,1-2.27-.25c-1.52-.66-2-2.52-2.3-4.14-1.5-8.36-2.4-16.81-3.31-25.25a63.34,63.34,0,0,1-.53-11.67,51.91,51.91,0,0,1,1.42-8.09c1.33-5.6,3.78-14,10.25-15.52S335.05,47.13,340.79,50.21Z" transform="translate(-35.39 -2.4)" fill="#017be3"/><path d="M357.78,70.28a1.43,1.43,0,0,1-.4.73l-5.79,7.06c-.33.41-.75.86-1.28.84a1.68,1.68,0,0,1-.92-.46,21.45,21.45,0,0,1-5.58-6.9q2,15.92,4,31.84a8.34,8.34,0,0,1,0,3.11c-.64,2.43-3.26,3.74-5.69,4.35a46.68,46.68,0,0,1-9.14,1l-17.16.73a5.09,5.09,0,0,1-2.27-.25,2.83,2.83,0,0,1-1.14-.91v0a7.63,7.63,0,0,1-1.15-3.21c-1.5-8.36-2.4-16.81-3.31-25.25a63.34,63.34,0,0,1-.53-11.67,51.91,51.91,0,0,1,1.42-8.09,38.88,38.88,0,0,1,3.26-9.38c1.58-2.94,3.79-5.37,7-6.14,6.39-1.55,16-.53,21.73,2.55,4.82,2.59,8.16,7.21,11.33,11.68l5.28,7.43A1.49,1.49,0,0,1,357.78,70.28Z" transform="translate(-35.39 -2.4)" fill="url(#linear-gradient-5)"/><path d="M343.81,71.55l-.62-11s8.46,12.42,13.17,11.76c0,0-3.43,5.63-6.05,6.65a17,17,0,0,1-5.15-5.08C343.47,70.88,343.81,71.55,343.81,71.55Z" transform="translate(-35.39 -2.4)" fill="url(#linear-gradient-6)"/><path d="M325.06,111.85l-11.53.48-1.14-.91v0a7.63,7.63,0,0,1-1.15-3.21c-1.5-8.36-2.4-16.81-3.31-25.25a63.34,63.34,0,0,1-.53-11.67,51.91,51.91,0,0,1,1.42-8.09,38.88,38.88,0,0,1,3.26-9.38l.66,11,4.82,13.51S319.18,111,325.06,111.85Z" transform="translate(-35.39 -2.4)" fill="url(#linear-gradient-7)"/><path d="M332,41.39a.67.67,0,0,1,.33-.72,8.85,8.85,0,0,0-.4,5,8.76,8.76,0,0,1,.45,2.76c-.2,2-2.62,3.28-4.55,2.74s-4.71-1.61-5.43-3.52c-.46-1.24-1-11.85-.91-12.18.36-.89,2.69,2.29,3.5,2.79s1.38,1.33,2.21,1.8c1.61.91,4,.35,5.09,1.83" transform="translate(-35.39 -2.4)" fill="url(#linear-gradient-8)"/><path d="M323.14,48.39s6.42,3.19,7.8,1.27,1.24-2.72,1.24-2.72l1,.71s1.53,3.84-2.06,4.89-7.18-1.2-7.18-1.2Z" transform="translate(-35.39 -2.4)" fill="#017be3"/><path d="M323.14,48.39s6.42,3.19,7.8,1.27,1.24-2.72,1.24-2.72l1,.71s1.53,3.84-2.06,4.89-7.18-1.2-7.18-1.2Z" transform="translate(-35.39 -2.4)" fill="url(#linear-gradient-9)"/><path d="M327.67,81.79C336,74.12,345,67.22,354,60.33c3.59-2.75,7.4-5.6,11.87-6.22,1.08-.15,4.28-.07,4.12,1s-3.24.57-3.66.7c-3,.92-2.77,1.54-2,3.94s.39,4.47-1.18,5.91c-1.21,1.11-6.94,3.16-8.4,3.91-4,2.06-7.26,5.3-10.46,8.48L339.5,82.8c-1.56,1.57-3.13,3.13-4.56,4.83A29.86,29.86,0,0,1,331,91.89a6.6,6.6,0,0,1-5.37,1.59c-1.89-.4-2.85-.33-5.94-2.86a39.27,39.27,0,0,1-5.4-5.54c-.21-.29,7.07-5.56,9.14-5.7S325.56,83.73,327.67,81.79Z" transform="translate(-35.39 -2.4)" fill="url(#linear-gradient-10)"/><path d="M313.53,112.33s-.89,17.56,5.82,22.06,29.74,2.53,29.74,2.53,24.31,45.43,24.15,45,7-4,7-4l-16.76-54.56L333,111.85Z" transform="translate(-35.39 -2.4)" fill="#25233a"/><path d="M406.72,26.34v18A4.68,4.68,0,0,1,402,49h-3.56a4.67,4.67,0,0,1-4.67-4.67v-18a4.68,4.68,0,0,1,4.67-4.68H402A4.69,4.69,0,0,1,406.72,26.34Z" transform="translate(-35.39 -2.4)" fill="#017be3"/><path d="M406.72,26.34V40.4A4.68,4.68,0,0,1,402,45.07h-3.56a4.67,4.67,0,0,1-4.67-4.67V26.34a4.68,4.68,0,0,1,4.67-4.68H402A4.69,4.69,0,0,1,406.72,26.34Z" transform="translate(-35.39 -2.4)" fill="url(#linear-gradient-11)"/><path d="M389.79,40.31v5.56a6.41,6.41,0,0,0,6.41,6.41h7.94a6.41,6.41,0,0,0,6.41-6.41V40.31" transform="translate(-35.39 -2.4)" fill="none" stroke="#000" stroke-linecap="round" stroke-miterlimit="10" stroke-width="3"/><path d="M400.17,52.28V136" transform="translate(-35.39 -2.4)" fill="none" stroke="#000" stroke-linecap="round" stroke-miterlimit="10" stroke-width="3"/><path d="M378.43,190.47a.86.86,0,0,0,1.26.53c2.77-.81,5.5-1.76,8.23-2.7,2.56-.88,5.22-1.83,7.06-3.82a1.08,1.08,0,0,0,.35-.62,1.1,1.1,0,0,0-.46-.81,9.82,9.82,0,0,0-11.16-1.29c-.87.49-1.89,1.14-2.78.69a2.67,2.67,0,0,1-1-1.25l-1.34-2.57s-2.9,1.82-3.14,2.09c-.72.83-.68,1.15-.44,2.2C375.6,185.47,377.25,188.14,378.43,190.47Z" transform="translate(-35.39 -2.4)" fill="#25233a"/><path d="M397.29,176.1c.15.35.33.75.7.85a1.17,1.17,0,0,0,.79-.14,88.2,88.2,0,0,0,13.42-7.89,11.37,11.37,0,0,0-13.28-1.07c-.67-1.3-1.15-3.56-2.73-3.06a5.72,5.72,0,0,0-2.67,3.36C393.17,170.63,396.4,173.87,397.29,176.1Z" transform="translate(-35.39 -2.4)" fill="#25233a"/><path d="M342.12,31.7c-.32,2.84-1,5.76-2.74,8-2.7,3.38-7.69,4.45-11.78,3a15,15,0,0,1-8.74-9A24.88,24.88,0,0,1,318,20.94a12.68,12.68,0,0,1,2.11-5.68c1.93-2.52,5.22-3.57,8.36-4.06,3.82-.6,9.79-.39,12.13,3.34C343.27,18.83,342.66,26.92,342.12,31.7Z" transform="translate(-35.39 -2.4)" fill="url(#linear-gradient-12)"/><path d="M342,14.9c-1.77,4-6.29,5.71-10.33,7.28s-8.48,3.83-9.55,8a3.88,3.88,0,0,1-.74-2.89c-.66.32-.55,7.35.17,10.78.61,2.92.63,5.95,1.25,8.87s2,5.88,4.53,7.44a11.7,11.7,0,0,1-13.94-6.07l.86,4.47a22.1,22.1,0,0,1-7.83-14.49,32.83,32.83,0,0,1,2.49-16.52c.8-1.93,1.33-4,2.19-5.87C318.36-.25,332.58,1.7,336.94,3.72,341,5.6,343.92,10.55,342,14.9Z" transform="translate(-35.39 -2.4)" fill="#25233a"/><path d="M322.62,68c1.31,5.49,1.25,7.37,2.06,11a20.08,20.08,0,0,1-10.11,7.55,2.8,2.8,0,0,1-1.66.15,3.27,3.27,0,0,1-1.57-1.49,28.43,28.43,0,0,1-4.61-15.28c0-4.22,2.39-17.33,7.91-16.4,2.5.42,3.69,2.6,4.53,4.59A49.56,49.56,0,0,1,322.62,68Z" transform="translate(-35.39 -2.4)" fill="#017be3"/><path d="M322.62,68c1.31,5.49,1.25,7.37,2.06,11a20.08,20.08,0,0,1-10.11,7.55,2.8,2.8,0,0,1-1.66.15,3.27,3.27,0,0,1-1.57-1.49,28.43,28.43,0,0,1-4.61-15.28c0-4.22,2.39-17.33,7.91-16.4,2.5.42,3.69,2.6,4.53,4.59A49.56,49.56,0,0,1,322.62,68Z" transform="translate(-35.39 -2.4)" fill="url(#linear-gradient-13)"/><path d="M387.33,35.94c-.06.65-.3,1.27-.41,1.91-.22,1.19,0,2.42-.24,3.59s-1.21,2.38-2.4,2.22c-1-.13-1.67-1.18-2.14-2.12-.37-.73-1.12-1.39-1.48-2.13a.77.77,0,0,0,.47-.17C383.76,37,383,34,384.56,31.09a.8.8,0,0,1,.09-.14,2,2,0,0,1,1.35.73,5.08,5.08,0,0,1,.8,1.53A6.48,6.48,0,0,1,387.33,35.94Z" transform="translate(-35.39 -2.4)" fill="url(#linear-gradient-14)"/><path d="M324.32,251.4a4.25,4.25,0,0,1,.8.07v-8.88a31.32,31.32,0,0,0-.77-7h0a5.06,5.06,0,0,1-3.38-8.83,31.25,31.25,0,0,0-3.14-4.56,5.07,5.07,0,0,1-6.88-6.2,31.93,31.93,0,0,0-35.9.29,4.94,4.94,0,0,1,.17,1.28,5.07,5.07,0,0,1-5.07,5.07,4.83,4.83,0,0,1-1.66-.29,31.68,31.68,0,0,0-2.6,3.68,5.07,5.07,0,0,1-2.35,9.56,4.92,4.92,0,0,1-1.44-.21,32,32,0,0,0-.81,7.17v9.34a5,5,0,0,1,2.25-.53,5.07,5.07,0,1,1,0,10.13,5,5,0,0,1-2.25-.53v16.83a5,5,0,0,1,2.25-.53,5.07,5.07,0,0,1,0,10.14,5,5,0,0,1-2.25-.53V303.2h63.86V287.37a4.25,4.25,0,0,1-.8.07,5.07,5.07,0,0,1,0-10.14,4.25,4.25,0,0,1,.8.07V261.46a4.25,4.25,0,0,1-.8.07,5.07,5.07,0,0,1,0-10.13Zm-10.13-20.84a5.07,5.07,0,1,1-5.07-5.07A5.07,5.07,0,0,1,314.19,230.56Zm-30.41,25.9a5.07,5.07,0,1,1-5.07-5.06A5.07,5.07,0,0,1,283.78,256.46Zm-3.52-12.95a5.07,5.07,0,1,1,5.07,5.07A5.07,5.07,0,0,1,280.26,243.51Zm5.07,20.84a5.07,5.07,0,1,1-5.07,5.07A5.07,5.07,0,0,1,285.33,264.35Zm3.52-7.89a5.07,5.07,0,1,1,5.07,5.07A5.06,5.06,0,0,1,288.85,256.46Zm6.61-12.95a5.07,5.07,0,1,1,5.07,5.07A5.07,5.07,0,0,1,295.46,243.51Zm5.07,20.84a5.07,5.07,0,1,1-5.07,5.07A5.07,5.07,0,0,1,300.53,264.35Zm3.52-7.89a5.07,5.07,0,1,1,5.07,5.07A5.06,5.06,0,0,1,304.05,256.46Zm-3.52-43.92a5.07,5.07,0,1,1-5.07,5.07A5.07,5.07,0,0,1,300.53,212.54Zm-6.61,13a5.07,5.07,0,1,1-5.07,5.07A5.06,5.06,0,0,1,293.92,225.49Zm-8.59-13a5.07,5.07,0,1,1-5.07,5.07A5.07,5.07,0,0,1,285.33,212.54Zm-6.62,13a5.07,5.07,0,1,1-5.07,5.07A5.07,5.07,0,0,1,278.71,225.49Zm-13.65,18a5.07,5.07,0,1,1,5.06,5.07A5.07,5.07,0,0,1,265.06,243.51Zm0,25.91a5.07,5.07,0,1,1,5.06,5.06A5.07,5.07,0,0,1,265.06,269.42Zm5.06,31a5.07,5.07,0,1,1,5.07-5.07A5.07,5.07,0,0,1,270.12,300.39Zm3.52-18a5.07,5.07,0,1,1,5.07,5.07A5.07,5.07,0,0,1,273.64,282.37Zm11.69,18a5.07,5.07,0,1,1,5.07-5.07A5.07,5.07,0,0,1,285.33,300.39Zm3.52-18a5.07,5.07,0,1,1,5.07,5.07A5.07,5.07,0,0,1,288.85,282.37Zm11.68,18a5.07,5.07,0,1,1,5.07-5.07A5.07,5.07,0,0,1,300.53,300.39Zm3.52-18a5.07,5.07,0,1,1,5.07,5.07A5.07,5.07,0,0,1,304.05,282.37Zm16.76,12.95a5.07,5.07,0,1,1-5.07-5.07A5.07,5.07,0,0,1,320.81,295.32Zm0-25.9a5.07,5.07,0,1,1-5.07-5.07A5.07,5.07,0,0,1,320.81,269.42Zm-5.07-20.84a5.07,5.07,0,1,1,5.07-5.07A5.07,5.07,0,0,1,315.74,248.58Z" transform="translate(-35.39 -2.4)" fill="url(#linear-gradient-15)"/></svg>